<svg version="1.2" xmlns="http://www.w3.org/2000/svg" viewBox="0 0 56 40" width="56" height="40"><style>.a{fill:#fdfbf5}.b{fill:none;stroke:#be3c46;stroke-width:1}</style><path class="a" d="m36.7 39.3c-4.7 0-9.9-1-14.8-2.8-7.1-2.5-13.2-6.5-17.1-11.3-4.4-5.2-5.8-10.7-4.1-15.5 2.2-6.1 9.2-9.7 18.6-9.7 4.7 0 9.9 1 14.8 2.8 15.4 5.5 24.6 17.3 21.2 26.8-2.2 6.1-9.2 9.7-18.6 9.7z"/><path class="b" d="m52.6 28.6c-2.8 7.9-16.2 10.2-29.8 5.3-13.6-5-22.3-15.3-19.4-23.2 2.8-7.9 16.2-10.2 29.8-5.3 13.6 5 22.3 15.4 19.4 23.2z"/></svg>